<svg xmlns="http://www.w3.org/2000/svg" xmlns:xlink="http://www.w3.org/1999/xlink" width="500" zoomAndPan="magnify" viewBox="0 0 375 374.999991" height="500" preserveAspectRatio="xMidYMid meet" version="1.2"><defs/><g id="acda563a57"><rect x="0" width="375" y="0" height="374.999991" style="fill:#ffffff;fill-opacity:1;stroke:none;"/><rect x="0" width="375" y="0" height="374.999991" style="fill:#f1efe7;fill-opacity:1;stroke:none;"/><g style="fill:#0a0a0a;fill-opacity:1;"><g transform="translate(67.637941, 263.369419)"><path style="stroke:none" d="M 20.265625 -210.40625 C 25.710938 -215.851562 32.210938 -218.578125 39.765625 -218.578125 C 47.316406 -218.578125 53.8125 -215.851562 59.25 -210.40625 C 64.695312 -204.96875 67.421875 -198.472656 67.421875 -190.921875 C 67.421875 -183.367188 64.695312 -176.867188 59.25 -171.421875 C 53.8125 -165.984375 47.316406 -163.265625 39.765625 -163.265625 C 32.210938 -163.265625 25.710938 -165.984375 20.265625 -171.421875 C 14.828125 -176.867188 12.109375 -183.367188 12.109375 -190.921875 C 12.109375 -198.472656 14.828125 -204.96875 20.265625 -210.40625 Z M 15.796875 -135.09375 L 15.796875 11.84375 C 15.796875 24.132812 11.492188 30.28125 2.890625 30.28125 C 1.140625 30.28125 -0.695312 29.972656 -2.625 29.359375 C -4.5625 28.742188 -6.144531 28.085938 -7.375 27.390625 L -8.953125 26.328125 L -23.4375 64 C -23.082031 64.164062 -21.941406 64.6875 -20.015625 65.5625 C -18.085938 66.445312 -16.640625 67.109375 -15.671875 67.546875 C -14.703125 67.984375 -13.078125 68.550781 -10.796875 69.25 C -8.515625 69.957031 -6.316406 70.484375 -4.203125 70.828125 C -2.097656 71.179688 0.53125 71.535156 3.6875 71.890625 C 6.84375 72.242188 10.175781 72.421875 13.6875 72.421875 C 22.46875 72.421875 30.191406 70.882812 36.859375 67.8125 C 43.535156 64.738281 48.628906 60.613281 52.140625 55.4375 C 55.648438 50.257812 58.238281 44.816406 59.90625 39.109375 C 61.570312 33.398438 62.40625 27.296875 62.40625 20.796875 L 62.40625 -135.09375 Z M 15.796875 -135.09375 "/></g></g><g style="fill:#0a0a0a;fill-opacity:1;"><g transform="translate(132.947364, 263.369419)"><path style="stroke:none" d="M 15.796875 0 L 15.796875 -226.46875 L 62.40625 -226.46875 L 62.40625 0 Z M 15.796875 0 "/></g></g><g style="fill:#0a0a0a;fill-opacity:1;"><g transform="translate(198.256788, 263.369419)"><path style="stroke:none" d="M 15.796875 0 L 15.796875 -135.09375 L 62.40625 -135.09375 L 62.40625 -115.609375 L 62.9375 -115.609375 C 63.289062 -116.304688 63.863281 -117.179688 64.65625 -118.234375 C 65.445312 -119.296875 67.15625 -121.140625 69.78125 -123.765625 C 72.414062 -126.398438 75.222656 -128.769531 78.203125 -130.875 C 81.191406 -132.988281 85.054688 -134.878906 89.796875 -136.546875 C 94.535156 -138.210938 99.363281 -139.046875 104.28125 -139.046875 C 109.375 -139.046875 114.378906 -138.34375 119.296875 -136.9375 C 124.210938 -135.53125 127.8125 -134.125 130.09375 -132.71875 L 133.78125 -130.625 L 114.296875 -91.109375 C 108.492188 -96.023438 100.414062 -98.484375 90.0625 -98.484375 C 84.445312 -98.484375 79.617188 -97.253906 75.578125 -94.796875 C 71.535156 -92.335938 68.679688 -89.351562 67.015625 -85.84375 C 65.347656 -82.332031 64.160156 -79.347656 63.453125 -76.890625 C 62.753906 -74.429688 62.40625 -72.503906 62.40625 -71.109375 L 62.40625 0 Z M 15.796875 0 "/></g></g></g></svg>