<svg xmlns="http://www.w3.org/2000/svg" version="1.1" xmlns:xlink="http://www.w3.org/1999/xlink" width="500" height="500"><svg xmlns="http://www.w3.org/2000/svg" xmlns:xlink="http://www.w3.org/1999/xlink" width="500" zoomAndPan="magnify" viewBox="0 0 375 374.999991" height="500" preserveAspectRatio="xMidYMid meet" version="1.2"><defs></defs><g id="SvgjsG1001"><rect x="0" width="375" y="0" height="374.999991" style="fill:#ffffff;fill-opacity:1;stroke:none;"></rect><rect x="0" width="375" y="0" height="374.999991" style="fill:#000000;fill-opacity:1;stroke:none;"></rect><g style="fill:#f1efe7;fill-opacity:1;"><g transform="translate(75.313183, 268.108637)"><path style="stroke:none" d="M 20.546875 -213.265625 C 26.066406 -218.785156 32.648438 -221.546875 40.296875 -221.546875 C 47.953125 -221.546875 54.535156 -218.785156 60.046875 -213.265625 C 65.566406 -207.753906 68.328125 -201.171875 68.328125 -193.515625 C 68.328125 -185.867188 65.566406 -179.285156 60.046875 -173.765625 C 54.535156 -168.242188 47.953125 -165.484375 40.296875 -165.484375 C 32.648438 -165.484375 26.066406 -168.242188 20.546875 -173.765625 C 15.035156 -179.285156 12.28125 -185.867188 12.28125 -193.515625 C 12.28125 -201.171875 15.035156 -207.753906 20.546875 -213.265625 Z M 16.015625 -136.9375 L 16.015625 12.015625 C 16.015625 24.472656 11.65625 30.703125 2.9375 30.703125 C 1.15625 30.703125 -0.710938 30.390625 -2.671875 29.765625 C -4.628906 29.140625 -6.226562 28.472656 -7.46875 27.765625 L -9.078125 26.6875 L -23.75 64.859375 C -23.394531 65.035156 -22.238281 65.566406 -20.28125 66.453125 C -18.320312 67.347656 -16.851562 68.015625 -15.875 68.453125 C -14.894531 68.898438 -13.25 69.476562 -10.9375 70.1875 C -8.625 70.90625 -6.398438 71.441406 -4.265625 71.796875 C -2.128906 72.148438 0.535156 72.503906 3.734375 72.859375 C 6.941406 73.222656 10.320312 73.40625 13.875 73.40625 C 22.769531 73.40625 30.597656 71.847656 37.359375 68.734375 C 44.128906 65.617188 49.289062 61.4375 52.84375 56.1875 C 56.40625 50.9375 59.03125 45.421875 60.71875 39.640625 C 62.414062 33.859375 63.265625 27.675781 63.265625 21.09375 L 63.265625 -136.9375 Z M 16.015625 -136.9375 "></path></g></g><g style="fill:#f1efe7;fill-opacity:1;"><g transform="translate(141.510395, 268.108637)"><path style="stroke:none" d="M 16.015625 0 L 16.015625 -229.546875 L 63.265625 -229.546875 L 63.265625 0 Z M 16.015625 0 "></path></g></g><g style="fill:#f1efe7;fill-opacity:1;"><g transform="translate(207.707607, 268.108637)"><path style="stroke:none" d="M 16.015625 0 L 16.015625 -136.9375 L 63.265625 -136.9375 L 63.265625 -117.171875 L 63.796875 -117.171875 C 64.148438 -117.890625 64.726562 -118.78125 65.53125 -119.84375 C 66.332031 -120.914062 68.066406 -122.785156 70.734375 -125.453125 C 73.398438 -128.117188 76.242188 -130.519531 79.265625 -132.65625 C 82.296875 -134.789062 86.210938 -136.703125 91.015625 -138.390625 C 95.828125 -140.085938 100.722656 -140.9375 105.703125 -140.9375 C 110.859375 -140.9375 115.925781 -140.222656 120.90625 -138.796875 C 125.894531 -137.367188 129.546875 -135.945312 131.859375 -134.53125 L 135.59375 -132.390625 L 115.84375 -92.359375 C 109.96875 -97.335938 101.78125 -99.828125 91.28125 -99.828125 C 85.59375 -99.828125 80.703125 -98.582031 76.609375 -96.09375 C 72.515625 -93.601562 69.617188 -90.578125 67.921875 -87.015625 C 66.234375 -83.453125 65.035156 -80.425781 64.328125 -77.9375 C 63.617188 -75.445312 63.265625 -73.488281 63.265625 -72.0625 L 63.265625 0 Z M 16.015625 0 "></path></g></g></g></svg><style>@media (prefers-color-scheme: light) { :root { filter: none; } }
@media (prefers-color-scheme: dark) { :root { filter: none; } }
</style></svg>